<svg id="Layer_1" data-name="Layer 1" xmlns="http://www.w3.org/2000/svg" viewBox="0 0 362.73 512"><path d="M108.38,0h23.08V22.8h21.11V0h23.08V69H152.57V45.92H131.46V69H108.38V0Z" transform="translate(-74.63)" style="fill:#fff"/><path d="M206,22.9H185.68V0H249.4V22.9H229.07V69H206V22.9Z" transform="translate(-74.63)" style="fill:#fff"/><path d="M259.51,0h24.06l14.81,24.26L313.16,0h24.07V69h-23V34.82L298.38,59.37H298L282.09,34.82V69H259.51Z" transform="translate(-74.63)" style="fill:#fff"/><path d="M348.72,0H371.8V46.22h32.46V69H348.72Z" transform="translate(-74.63)" style="fill:#fff"/><path d="M74.63,100.62l33,370.26L255.78,512l148.54-41.18,33.05-370.2Zm293.88,87.87-2.07,23-.91,10.21H191.76l4.15,46.5H361.4l-1.11,12.19L349.62,400l-.68,7.67L256,433.39h0l-.21.06-93-25.83-6.36-71.3H202l3.24,36.22,50.57,13.66,0,0h0l50.65-13.67,5.27-58.89H154.38L143.22,188.49l-1.09-12.19H369.6Z" transform="translate(-74.63)" style="fill:#fff"/></svg>