<svg id="Layer_1" data-name="Layer 1" xmlns="http://www.w3.org/2000/svg" viewBox="0 0 497.62 674.13"><path d="M926.8,835.39c-11.52-.34-23-.83-34.53-1.56-8-.51-16.07-1.08-24.08-1.84-11.26-1.08-22.48-2.45-33.62-4.39a199.1,199.1,0,0,1-28.52-6.78,62,62,0,0,1-8.66-3.54,4.74,4.74,0,0,1-2-1.42l9.34,1.38c7.34,1.08,14.7,2,22.09,2.78,8.07.81,16.15,1.62,24.24,2.34,4.56.41,9.13.64,13.7.95,10.6.7,21.22,1.08,31.83,1.57l.83,0q25.72.76,51.45.38,14.58-.21,29.15-.84,14.87-.63,29.73-1.67,15.36-1.1,30.69-2.68c9.93-1,19.86-2.18,29.75-3.55q16.18-2.24,32.24-5.21c13.37-2.49,26.66-5.33,39.79-8.87,13.75-3.7,27.29-8,40.19-14.14a88.08,88.08,0,0,0,15.06-8.85,34,34,0,0,0,6.82-6.68l.42.06v.42a.65.65,0,0,0-.38.66,18.76,18.76,0,0,1-1.95,7c-2.7,6.06-7.09,10.74-12.22,14.79-7.09,5.59-15.06,9.64-23.36,13.08-15.18,6.29-31,10.39-47.07,13.71-10.73,2.22-21.53,4-32.39,5.51-7.28,1-14.57,1.94-21.88,2.71-6.83.72-13.67,1.31-20.52,1.89-9.47.8-19,1.38-28.45,1.89-7.55.41-15.12.62-22.68.92l-11.58.05c-5.07,0-10.13-.06-15.19-.06q-12.9,0-25.81,0Z" transform="translate(-705.11 -161.68)" style="fill:#fff"/><path d="M939.25,835.44q12.9,0,25.81,0c5.06,0,10.12,0,15.18.06a2,2,0,0,0-.09.35H939.31A2.2,2.2,0,0,0,939.25,835.44Z" transform="translate(-705.11 -161.68)" style="fill:#fff"/><path d="M939.25,835.44a2.2,2.2,0,0,1,.06.37H926.8v-.42Z" transform="translate(-705.11 -161.68)" style="fill:#fff"/><path d="M980.15,835.81a2,2,0,0,1,.09-.35l11.59-.05a2.67,2.67,0,0,0,0,.4Z" transform="translate(-705.11 -161.68)" style="fill:#fff"/><path d="M1021.89,161.7a51.18,51.18,0,0,1,7.28,10.12,76,76,0,0,1,9.77,30.28c1.62,15.31-1,30-6.56,44.26s-13.38,26.95-22.61,38.95c-11.09,14.43-23.84,27.28-37.44,39.32-7.85,7-16.18,13.34-24.23,20.07-11.44,9.55-22.07,19.91-30.92,32a94.14,94.14,0,0,0-12.81,23.27c-5.37,14.62-5.41,29.33-.67,44.11,3.2,10,8.06,19.17,13.57,28,5.87,9.44,12.4,18.43,18.73,27.56S948.53,518,953.4,528a5.37,5.37,0,0,1,.84,2.29,1.83,1.83,0,0,1-1.12-.66c-14.83-13.43-29.46-27.08-43.18-41.65-9.82-10.43-19.13-21.29-27.11-33.22-5.89-8.8-10.94-18-14.17-28.18a63.52,63.52,0,0,1-3.16-20.48,55.17,55.17,0,0,1,8.94-28.87c6.31-10,14.1-18.74,22.5-27,10.53-10.33,21.95-19.61,33.49-28.76,12.74-10.09,25.69-19.92,38.05-30.48,10.95-9.35,21.41-19.19,30.54-30.37,9.75-11.94,17.59-24.94,22.12-39.78a99.7,99.7,0,0,0,4.18-34.55,128.25,128.25,0,0,0-3.31-22.83,2.57,2.57,0,0,1-.08-1.83Z" transform="translate(-705.11 -161.68)" style="fill:#fff"/><path d="M1161.39,738.22c3.72,1.83,7.3,3.88,9.81,7.36a8.46,8.46,0,0,1,.71,9.42,22.11,22.11,0,0,1-6.63,7.37,80.71,80.71,0,0,1-18.2,10c-12.89,5.42-26.29,9.26-39.86,12.57-14.09,3.43-28.33,6.15-42.66,8.4q-17.18,2.7-34.45,4.59c-8.83,1-17.67,1.82-26.53,2.51q-12.55,1-25.14,1.67c-12.13.66-24.28,1-36.43,1.29-10.28.22-20.56.3-30.84.15-10.9-.17-21.8-.42-32.7-.84-10.47-.4-20.94-1-31.4-1.65-10.94-.73-21.87-1.66-32.79-2.69q-19.59-1.83-39.1-4.36c-13.69-1.78-27.37-3.67-40.95-6.15a78.3,78.3,0,0,1-19.51-5.76,24,24,0,0,1-6.12-3.91c-4-3.62-4.54-7.77-1.77-12.35a28.16,28.16,0,0,1,6.63-7.14,81.55,81.55,0,0,1,15.78-9.67,183.94,183.94,0,0,1,49.44-15.67A94.47,94.47,0,0,1,800.25,732a30.43,30.43,0,0,1,10.14,2.13,5.37,5.37,0,0,1,2.4,1.47c-3,.2-5.73.16-8.48.43a126.82,126.82,0,0,0-25.43,5.25,136.86,136.86,0,0,0-17.52,6.59,48.67,48.67,0,0,0-9.34,5.44,13.06,13.06,0,0,0-3.42,3.61,4.6,4.6,0,0,0,.67,5.92,15.37,15.37,0,0,0,5.2,3.38,129.26,129.26,0,0,0,22,7c9.92,2.4,20,4.07,30.08,5.52,10.72,1.53,21.49,2.62,32.27,3.57,7.05.62,14.12,1,21.19,1.42,32.12,2,64.28,2,96.44,1.5,12.21-.2,24.43-.75,36.64-1.25,7.28-.3,14.56-.73,21.83-1.22,8.31-.57,16.61-1.3,24.92-1.91,8-.59,16-1.39,24-2.26q12.53-1.36,25-3.13c9.48-1.34,18.94-2.84,28.32-4.75,10.34-2.1,20.63-4.42,30.47-8.36a42.17,42.17,0,0,0,12.06-6.89,16.69,16.69,0,0,0,2.92-3.25,10,10,0,0,0-.17-11.88c-.43-.62-.91-1.22-1.37-1.82Z" transform="translate(-705.11 -161.68)" style="fill:#fff"/><path d="M979.7,552.28a73.82,73.82,0,0,0,12-15.9c4.28-7.84,6.63-16.14,6-25.15A42.71,42.71,0,0,0,991.4,492a77.67,77.67,0,0,0-7.64-10.13c-8.11-9.57-15.25-19.79-20.54-31.21A79.89,79.89,0,0,1,955.64,423a66.43,66.43,0,0,1,6.94-34.9c5.2-10.53,12.45-19.5,20.88-27.59,10.47-10.06,22.28-18.33,34.77-25.65,20.44-12,42.11-21.19,64.49-28.81,7-2.4,14.12-4.57,21.26-6.56l0,.69c-16.73,9.76-33.25,19.85-49.22,30.82-12.08,8.31-23.84,17-34.63,27A115,115,0,0,0,1002.29,378a51.37,51.37,0,0,0-7.93,17.54c-1.84,8.2-.75,16.13,2.26,23.88a96.8,96.8,0,0,0,9.9,18.26c4.49,6.78,9.28,13.33,14,19.91a56.44,56.44,0,0,1,9.57,19.5c2.56,10.32,1.19,20.24-3.15,29.83a76.41,76.41,0,0,1-14.82,21.25,142,142,0,0,1-32.34,25Z" transform="translate(-705.11 -161.68)" style="fill:#fff"/><path d="M863.85,683.64c-.23.73-.93,1-1.45,1.41a14.79,14.79,0,0,0-3.67,4.21,5.12,5.12,0,0,0,1.15,6.77,16.68,16.68,0,0,0,5.41,3.06,63.26,63.26,0,0,0,14.16,3.32c10.45,1.42,20.95,2.39,31.46,3.23a343,343,0,0,0,41.43.83,378.1,378.1,0,0,0,41.8-4.35c9.4-1.44,18.74-3.16,28.09-4.82a2.81,2.81,0,0,1,2.16.31A245.08,245.08,0,0,0,1059,714.53c.38.16.75.36,1.12.54-.28.65-.9.72-1.39.92a284.38,284.38,0,0,1-48.38,15.2,311,311,0,0,1-31.8,5.3c-7.86.91-15.74,1.51-23.65,1.86-7.3.32-14.59.43-21.87.23-9.16-.24-18.3-.84-27.41-1.9a227.19,227.19,0,0,1-34.13-6.36c-8.85-2.43-17.51-5.38-25.51-10a33.19,33.19,0,0,1-10-8.05,16.56,16.56,0,0,1-1.52-2.23,9.92,9.92,0,0,1,.33-10.84,20.5,20.5,0,0,1,5.06-5.2,56.17,56.17,0,0,1,13.79-7.22c2.78-1.08,5.6-2.06,8.47-2.88a2.94,2.94,0,0,1,1.82-.23Z" transform="translate(-705.11 -161.68)" style="fill:#fff"/><path d="M1096.87,557.68c-2.12,1-4.25,2-6.36,3A182.76,182.76,0,0,0,1068.32,573a6.69,6.69,0,0,1-2.09.9c-11.09,2.84-22.3,5.17-33.57,7.14-10.12,1.78-20.28,3.26-30.47,4.5q-12.91,1.57-25.88,2.69c-12.8,1.11-25.61,2-38.44,2.53-8.88.39-17.77.65-26.65.83-7.92.16-15.84.3-23.75.17-10.28-.17-20.56-.32-30.83-.8s-20.38-1.09-30.54-2.06c-14-1.34-27.87-3-41.56-6.16a84.86,84.86,0,0,1-16.82-5.35,24.5,24.5,0,0,1-4.85-2.83,13.44,13.44,0,0,1-1.86-1.67c-2.16-2.42-2.26-4.94-.35-7.57a17.8,17.8,0,0,1,4.61-4.17,74.68,74.68,0,0,1,11.24-5.89,259,259,0,0,1,51-17.31,227.21,227.21,0,0,1,31-4.88,166.9,166.9,0,0,1,18.24-.68,3.82,3.82,0,0,1-2.22.92c-11.77,3-23.46,6.26-35,10.18a155.09,155.09,0,0,0-21.76,8.87,39.67,39.67,0,0,0-6.51,4.11,11.26,11.26,0,0,0-2.92,3.23,3.72,3.72,0,0,0,.55,4.77,10.6,10.6,0,0,0,3.38,2.39A51.55,51.55,0,0,0,825,570.68a212.71,212.71,0,0,0,24.78,3c22.61,1.66,45.25,1.36,67.89,1,8-.11,16-.44,23.95-.8,10.33-.48,20.66-1,31-1.68q13.51-.87,27-2.07c10-.88,19.89-2,29.81-3.12q18.19-2.15,36.32-4.8c10.09-1.47,20.17-3,30.21-4.82a7.35,7.35,0,0,1,.82-.07Z" transform="translate(-705.11 -161.68)" style="fill:#fff"/><path d="M848.14,609.6c-.83.9-1.65,1.83-2.53,2.71a24.6,24.6,0,0,0-4.2,5.42c-2.68,4.86-1.63,9,3.07,12a29.69,29.69,0,0,0,9.09,3.51,97.29,97.29,0,0,0,14.61,2.14c7.05.62,14.09,1.32,21.14,1.91,4.36.37,8.73.64,13.09.86q22.49,1.15,45,.39c12-.42,24-1.38,35.91-2.69q28.89-3.15,57.37-8.78c2.73-.53,4.69-.23,6.88,1.72a75.22,75.22,0,0,0,22.73,13.68c.44.18.88.39,1.32.59.05,0,.07.11.19.32a5,5,0,0,1-1.81.68q-23.23,6.6-47,10.92-17.41,3.18-35,5.22c-8.55,1-17.13,1.71-25.71,2.31-15.26,1.07-30.52,1.4-45.8,1.08q-15.93-.33-31.8-1.91a270.65,270.65,0,0,1-34.91-5.54c-8.46-2-16.78-4.42-24.56-8.41a31.87,31.87,0,0,1-8.36-5.78,17.45,17.45,0,0,1-2-2.36,9.26,9.26,0,0,1-.24-10.93,25.37,25.37,0,0,1,7.42-7.21,88.31,88.31,0,0,1,17.81-9c2.19-.88,4.41-1.68,6.64-2.45C847,609.8,847.55,609.37,848.14,609.6Z" transform="translate(-705.11 -161.68)" style="fill:#fff"/><path d="M1095.82,658.52a10.9,10.9,0,0,1,4.63-4.54,245.51,245.51,0,0,0,38.44-24.45c9-7.12,17.36-15,24.13-24.34a63.27,63.27,0,0,0,10.19-20.61c4.93-18.36-3-34.87-18.08-44a42.46,42.46,0,0,0-26.52-6.16A84.79,84.79,0,0,0,1113,538a4.55,4.55,0,0,1-1.81.44c-.22-.61.29-.87.56-1.2a23.15,23.15,0,0,1,10.2-7,74.44,74.44,0,0,1,29.91-4.14c14.7,1.12,27.69,6.27,38.08,17a42.83,42.83,0,0,1,12.24,25.88,47.23,47.23,0,0,1-4.29,24.95,74.09,74.09,0,0,1-16.37,22.42c-11.19,10.76-24.28,18.69-38.22,25.31a275.53,275.53,0,0,1-46.79,16.7A3.27,3.27,0,0,1,1095.82,658.52Z" transform="translate(-705.11 -161.68)" style="fill:#fff"/><path d="M979.7,552.28l.12.88a4.57,4.57,0,0,1-2.3,1.23A6.73,6.73,0,0,1,979.7,552.28Z" transform="translate(-705.11 -161.68)" style="fill:#fff"/><path d="M1103.93,300.13l0-.69a1.75,1.75,0,0,1,1.49-.34A1.84,1.84,0,0,1,1103.93,300.13Z" transform="translate(-705.11 -161.68)" style="fill:#fff"/><path d="M863.88,683.67c0-.28.13-.33.35-.32,0,0,.1.08.15.12l-.53.17Z" transform="translate(-705.11 -161.68)" style="fill:#fff"/><polygon points="316.81 0 316.68 0.01 316.78 0.02 316.81 0" style="fill:#fff"/></svg>